Coordinates
version=1
nRows=10
nColumns=40
inDegrees=yes

Units are S.I. units (second, meters, Newtons, ...)
Angles are in degrees.

endheader
time	pelvis_tilt	pelvis_list	pelvis_rotation	pelvis_tx	pelvis_ty	pelvis_tz	hip_flexion_r	hip_adduction_r	hip_rotation_r	knee_angle_r	knee_angle_r_beta	ankle_angle_r	subtalar_angle_r	mtp_angle_r	hip_flexion_l	hip_adduction_l	hip_rotation_l	knee_angle_l	knee_angle_l_beta	ankle_angle_l	subtalar_angle_l	mtp_angle_l	lumbar_extension	lumbar_bending	lumbar_rotation	arm_flex_r	arm_add_r	arm_rot_r	elbow_flex_r	pro_sup_r	wrist_flex_r	wrist_dev_r	arm_flex_l	arm_add_l	arm_rot_l	elbow_flex_l	pro_sup_l	wrist_flex_l	wrist_dev_l
     13.19000000	     -5.73145554	     -4.29398744	      1.22725784	      0.96011098	      0.91691596	      0.40770995	      7.21882335	     -5.27691054	     -7.92284040	     41.37077301	     41.37077301	      7.44117192	      0.43521990	    -23.69494655	     21.71938549	     -2.38664020	      1.14415568	     31.99986506	     31.99986506	     18.19176385	    -17.44051774	      9.62015992	     -8.28500799	      4.77774580	      4.54738441	     20.90833571	    -14.37878085	    -19.06144144	     26.43886148	     45.87918161	      0.00000000	      0.00000000	     12.82294798	    -12.21214664	      7.22277184	     41.74935388	     45.67934049	      0.00000000	      0.00000000
     13.20971429	     -5.57998729	     -4.20906024	      0.62668620	      0.95925376	      0.91557887	      0.40557612	     10.23042757	     -5.81765711	     -6.77681985	     46.92379316	     46.92379316	      5.16138193	     -2.12174346	    -23.52284635	     21.42321578	     -2.28563115	      0.70999635	     32.63749881	     32.63749881	     18.80079618	    -17.66620652	      9.37995306	     -8.60943417	      4.87110273	      3.90541786	     18.34558552	    -14.02827504	    -19.11334879	     25.40516194	     45.91388181	      0.00000000	      0.00000000	     14.34136088	    -12.75399833	      6.87692704	     42.57533772	     45.74281027	      0.00000000	      0.00000000
     13.22942857	     -5.55089170	     -4.38901701	     -0.00217613	      0.95832552	      0.91407073	      0.40378633	     13.21397363	     -5.63089622	     -5.28945300	     51.91832631	     51.91832631	      2.90383331	     -5.53959346	    -22.05785976	     21.31399917	     -2.50377867	      0.29462128	     33.38588258	     33.38588258	     19.57491000	    -17.79538253	      9.34132792	     -8.81168268	      5.30333623	      3.84480765	     15.27746545	    -14.02679679	    -19.19223003	     24.27582762	     45.96193198	      0.00000000	      0.00000000	     16.01131743	    -13.05355917	      6.40422859	     43.79343007	     45.83055435	      0.00000000	      0.00000000
     13.24914286	     -5.40787459	     -4.37266746	     -0.65655914	      0.95748028	      0.91285857	      0.40204395	     15.96990171	     -5.74384516	     -4.21290587	     56.61341034	     56.61341034	      2.04988634	     -6.84889970	    -17.24267192	     20.97976301	     -2.50747627	     -0.19580521	     34.00188347	     34.00188347	     20.56172445	    -17.83796601	      9.97700541	     -9.17398479	      5.50037276	      3.71975863	     12.05276531	    -13.91281014	    -19.32536899	     24.07740250	     46.02523888	      0.00000000	      0.00000000	     17.77954971	    -13.37819344	      5.69473810	     44.75359627	     45.97425414	      0.00000000	      0.00000000
     13.26885714	     -5.27784092	     -4.40366283	     -1.29592826	      0.95663368	      0.91195543	      0.40062914	     18.50014675	     -5.68571620	     -3.31642462	     60.56816965	     60.56816965	      1.85423024	     -7.79168469	    -11.60073585	     20.56327318	     -2.58731718	     -0.70738944	     34.40759316	     34.40759316	     21.20695226	    -17.88368191	     10.01005933	     -9.50447302	      5.73918116	      3.48929254	      9.10688047	    -13.80041261	    -19.34919046	     23.41666499	     46.11736851	      0.00000000	      0.00000000	     19.59368145	    -13.78745409	      5.08611755	     45.45581517	     46.10789924	      0.00000000	      0.00000000
     13.28857143	     -5.15171774	     -4.51340499	     -1.95109279	      0.95585848	      0.91156224	      0.39963317	     20.63055679	     -5.42102407	     -2.61393188	     63.33648472	     63.33648472	      0.84956459	     -9.45342638	     -9.54880463	     20.01966246	     -2.77097479	     -1.21026590	     34.56992042	     34.56992042	     21.70795901	    -17.92465838	      9.87568551	     -9.81601434	      6.05063586	      3.30084910	      6.44556499	    -13.69656289	    -19.40778557	     22.40473064	     46.16504119	      0.00000000	      0.00000000	     21.24733579	    -14.30554462	      4.57302103	     46.43585610	     46.19418027	      0.00000000	      0.00000000
     13.30828571	     -5.06030901	     -4.51731249	     -2.65224992	      0.95503395	      0.91170151	      0.39902929	     22.77073372	     -5.32572158	     -2.15781586	     65.70366955	     65.70366955	      2.13025844	     -9.50524748	     -2.78167130	     19.34216354	     -2.87718399	     -1.85807249	     34.39441172	     34.39441172	     22.01905970	    -17.92622512	      9.75205854	    -10.10421895	      6.22892155	      3.03716429	      3.68661092	    -13.46825646	    -19.64381534	     22.46348662	     46.24687740	      0.00000000	      0.00000000	     22.82629086	    -14.75545310	      3.39994262	     47.28307211	     46.36578915	      0.00000000	      0.00000000
     13.32800000	     -5.02132275	     -4.56213679	     -3.38794164	      0.95413039	      0.91245110	      0.39897000	     24.52761050	     -5.08055440	     -1.86147013	     66.69268837	     66.69268837	      1.76808358	    -10.75826893	     -2.26950861	     18.57581046	     -3.04745595	     -2.50795780	     33.93568382	     33.93568382	     22.23411596	    -17.90084764	      9.78017628	    -10.30956909	      6.40859173	      2.63755977	      1.60237676	    -13.21654855	    -19.68702903	     21.66232596	     46.27633276	      0.00000000	      0.00000000	     24.30052016	    -15.53690664	      2.94119256	     48.05462232	     46.43456086	      0.00000000	      0.00000000
     13.34771429	     -5.02137565	     -4.67740951	     -4.16793222	      0.95321944	      0.91377406	      0.39943027	     26.08756013	     -4.72471023	     -1.75491654	     66.77595650	     66.77595650	      1.90204575	    -11.77036707	     -1.71724917	     17.69630612	     -3.32069295	     -3.22178566	     33.19154023	     33.19154023	     22.32834650	    -17.81247184	      9.79260883	    -10.48792169	      6.65512816	      2.49387946	     -0.47497534	    -12.99807171	    -19.75287072	     21.05852362	     46.30131546	      0.00000000	      0.00000000	     25.75835032	    -16.19699240	      2.34506499	     49.04528333	     46.51652324	      0.00000000	      0.00000000
     13.36742857	     -5.07682894	     -4.84844024	     -4.98782972	      0.95220563	      0.91558886	      0.40039766	     27.45777124	     -4.32206570	     -1.85714061	     65.93179566	     65.93179566	      2.46875354	    -12.31978350	     -1.22231627	     16.75806315	     -3.68699322	     -3.99449066	     32.22692295	     32.22692295	     22.21300341	    -17.67828746	      9.58854565	    -10.67929649	      6.93172849	      2.52907686	     -2.62071491	    -12.75650790	    -19.90559684	     21.00361479	     46.32077240	      0.00000000	      0.00000000	     27.14167214	    -16.70217988	      1.31376726	     50.45692938	     46.64336079	      0.00000000	      0.00000000
